<svg width="659" height="404" viewBox="0 0 659 404" fill="none" xmlns="http://www.w3.org/2000/svg">
<path d="M87.5625 1.90909H119.017L140.653 54.6364H141.744L163.381 1.90909H194.835V95H170.108V41.1818H169.381L148.653 94.2727H133.744L113.017 40.8182H112.29V95H87.5625V1.90909ZM296.994 48.4545C296.994 58.8182 294.979 67.5606 290.949 74.6818C286.919 81.7727 281.479 87.1515 274.631 90.8182C267.782 94.4545 260.146 96.2727 251.722 96.2727C243.237 96.2727 235.57 94.4394 228.722 90.7727C221.903 87.0758 216.479 81.6818 212.449 74.5909C208.449 67.4697 206.449 58.7576 206.449 48.4545C206.449 38.0909 208.449 29.3636 212.449 22.2727C216.479 15.1515 221.903 9.77272 228.722 6.13636C235.57 2.46969 243.237 0.63636 251.722 0.63636C260.146 0.63636 267.782 2.46969 274.631 6.13636C281.479 9.77272 286.919 15.1515 290.949 22.2727C294.979 29.3636 296.994 38.0909 296.994 48.4545ZM270.994 48.4545C270.994 42.8788 270.252 38.1818 268.767 34.3636C267.312 30.5151 265.146 27.6061 262.267 25.6364C259.419 23.6364 255.903 22.6364 251.722 22.6364C247.54 22.6364 244.009 23.6364 241.131 25.6364C238.282 27.6061 236.116 30.5151 234.631 34.3636C233.176 38.1818 232.449 42.8788 232.449 48.4545C232.449 54.0303 233.176 58.7424 234.631 62.5909C236.116 66.4091 238.282 69.3182 241.131 71.3182C244.009 73.2879 247.54 74.2727 251.722 74.2727C255.903 74.2727 259.419 73.2879 262.267 71.3182C265.146 69.3182 267.312 66.4091 268.767 62.5909C270.252 58.7424 270.994 54.0303 270.994 48.4545ZM363.778 1.90909H389.051V61.5455C389.051 68.6364 387.354 74.7727 383.96 79.9545C380.597 85.1061 375.9 89.0909 369.869 91.9091C363.839 94.697 356.839 96.0909 348.869 96.0909C340.839 96.0909 333.809 94.697 327.778 91.9091C321.748 89.0909 317.051 85.1061 313.688 79.9545C310.354 74.7727 308.688 68.6364 308.688 61.5455V1.90909H333.96V59.3636C333.96 62.2424 334.597 64.8182 335.869 67.0909C337.142 69.3333 338.9 71.0909 341.142 72.3636C343.415 73.6364 345.991 74.2727 348.869 74.2727C351.778 74.2727 354.354 73.6364 356.597 72.3636C358.839 71.0909 360.597 69.3333 361.869 67.0909C363.142 64.8182 363.778 62.2424 363.778 59.3636V1.90909ZM481.608 1.90909V95H460.517L426.881 46.0909H426.335V95H401.062V1.90909H422.517L455.608 50.6364H456.335V1.90909H481.608ZM491.017 22.2727V1.90909H571.926V22.2727H543.926V95H519.017V22.2727H491.017ZM53.5625 198V104.909H78.8352V142.545H80.108L108.108 104.909H137.562L106.108 146.364L138.29 198H108.108L87.1989 163.091L78.8352 174V198H53.5625ZM169.244 198H141.972L172.699 104.909H207.244L237.972 198H210.699L190.335 130.545H189.608L169.244 198ZM164.153 161.273H215.426V180.182H164.153V161.273ZM246.938 198V104.909H272.21V177.636H309.847V198H246.938ZM344.244 198H316.972L347.699 104.909H382.244L412.972 198H385.699L365.335 130.545H364.608L344.244 198ZM339.153 161.273H390.426V180.182H339.153V161.273ZM478.017 135.636C477.623 134.03 477.002 132.621 476.153 131.409C475.305 130.167 474.244 129.121 472.972 128.273C471.729 127.394 470.275 126.742 468.608 126.318C466.972 125.864 465.169 125.636 463.199 125.636C458.956 125.636 455.335 126.652 452.335 128.682C449.366 130.712 447.093 133.636 445.517 137.455C443.972 141.273 443.199 145.879 443.199 151.273C443.199 156.727 443.941 161.394 445.426 165.273C446.911 169.152 449.123 172.121 452.062 174.182C455.002 176.242 458.653 177.273 463.017 177.273C466.866 177.273 470.063 176.712 472.608 175.591C475.184 174.47 477.108 172.879 478.381 170.818C479.653 168.758 480.29 166.333 480.29 163.545L484.653 164H463.381V146H504.653V158.909C504.653 167.394 502.85 174.652 499.244 180.682C495.669 186.682 490.729 191.288 484.426 194.5C478.153 197.682 470.956 199.273 462.835 199.273C453.775 199.273 445.82 197.348 438.972 193.5C432.123 189.652 426.775 184.167 422.926 177.045C419.108 169.924 417.199 161.455 417.199 151.636C417.199 143.939 418.366 137.121 420.699 131.182C423.063 125.242 426.335 120.227 430.517 116.136C434.699 112.015 439.532 108.909 445.017 106.818C450.502 104.697 456.381 103.636 462.653 103.636C468.169 103.636 473.29 104.424 478.017 106C482.775 107.545 486.972 109.758 490.608 112.636C494.275 115.485 497.229 118.864 499.472 122.773C501.714 126.682 503.078 130.97 503.562 135.636H478.017ZM537.744 198H510.472L541.199 104.909H575.744L606.472 198H579.199L558.835 130.545H558.108L537.744 198ZM532.653 161.273H583.926V180.182H532.653V161.273ZM80.963 207.909V301H59.8721L26.2357 252.091H25.6902V301H0.417511V207.909H21.8721L54.963 256.636H55.6902V207.909H80.963ZM115.819 301H88.5466L119.274 207.909H153.819L184.547 301H157.274L136.91 233.545H136.183L115.819 301ZM110.728 264.273H162.001V283.182H110.728V264.273ZM177.937 228.273V207.909H258.846V228.273H230.846V301H205.937V228.273H177.937ZM292.35 207.909V301H267.078V207.909H292.35ZM393.229 254.455C393.229 264.818 391.214 273.561 387.184 280.682C383.154 287.773 377.714 293.152 370.866 296.818C364.017 300.455 356.381 302.273 347.957 302.273C339.472 302.273 331.805 300.439 324.957 296.773C318.138 293.076 312.714 287.682 308.684 280.591C304.684 273.47 302.684 264.758 302.684 254.455C302.684 244.091 304.684 235.364 308.684 228.273C312.714 221.152 318.138 215.773 324.957 212.136C331.805 208.47 339.472 206.636 347.957 206.636C356.381 206.636 364.017 208.47 370.866 212.136C377.714 215.773 383.154 221.152 387.184 228.273C391.214 235.364 393.229 244.091 393.229 254.455ZM367.229 254.455C367.229 248.879 366.487 244.182 365.002 240.364C363.548 236.515 361.381 233.606 358.502 231.636C355.654 229.636 352.138 228.636 347.957 228.636C343.775 228.636 340.244 229.636 337.366 231.636C334.517 233.606 332.351 236.515 330.866 240.364C329.411 244.182 328.684 248.879 328.684 254.455C328.684 260.03 329.411 264.742 330.866 268.591C332.351 272.409 334.517 275.318 337.366 277.318C340.244 279.288 343.775 280.273 347.957 280.273C352.138 280.273 355.654 279.288 358.502 277.318C361.381 275.318 363.548 272.409 365.002 268.591C366.487 264.742 367.229 260.03 367.229 254.455ZM484.188 207.909V301H463.097L429.461 252.091H428.915V301H403.643V207.909H425.097L458.188 256.636H458.915V207.909H484.188ZM519.044 301H491.772L522.499 207.909H557.044L587.772 301H560.499L540.135 233.545H539.408L519.044 301ZM513.953 264.273H565.226V283.182H513.953V264.273ZM595.458 301V207.909H620.73V280.636H658.367V301H595.458ZM160.795 404V310.909H200.977C207.886 310.909 213.931 312.273 219.113 315C224.295 317.727 228.325 321.561 231.204 326.5C234.083 331.439 235.522 337.212 235.522 343.818C235.522 350.485 234.037 356.258 231.068 361.136C228.128 366.015 223.992 369.773 218.659 372.409C213.356 375.045 207.159 376.364 200.068 376.364H176.068V356.727H194.977C197.947 356.727 200.477 356.212 202.568 355.182C204.689 354.121 206.31 352.621 207.431 350.682C208.583 348.742 209.159 346.455 209.159 343.818C209.159 341.152 208.583 338.879 207.431 337C206.31 335.091 204.689 333.636 202.568 332.636C200.477 331.606 197.947 331.091 194.977 331.091H186.068V404H160.795ZM256.072 404H228.799L259.526 310.909H294.072L324.799 404H297.526L277.163 336.545H276.435L256.072 404ZM250.981 367.273H302.254V386.182H250.981V367.273ZM332.485 404V310.909H372.667C379.576 310.909 385.621 312.167 390.803 314.682C395.985 317.197 400.015 320.818 402.894 325.545C405.773 330.273 407.212 335.939 407.212 342.545C407.212 349.212 405.727 354.833 402.758 359.409C399.818 363.985 395.682 367.439 390.349 369.773C385.046 372.106 378.849 373.273 371.758 373.273H347.758V353.636H366.667C369.637 353.636 372.167 353.273 374.258 352.545C376.379 351.788 378 350.591 379.121 348.955C380.273 347.318 380.849 345.182 380.849 342.545C380.849 339.879 380.273 337.712 379.121 336.045C378 334.348 376.379 333.106 374.258 332.318C372.167 331.5 369.637 331.091 366.667 331.091H357.758V404H332.485ZM387.03 361.273L410.303 404H382.849L360.121 361.273H387.03ZM416.705 404V310.909H441.978V348.545H443.25L471.25 310.909H500.705L469.25 352.364L501.432 404H471.25L450.341 369.091L441.978 380V404H416.705Z" fill="white"/>
</svg>
